<?xml version="1.0" encoding="UTF-8" standalone="no" ?>
<!DOCTYPE svg PUBLIC "-//W3C//DTD SVG 1.1//EN" "http://www.w3.org/Graphics/SVG/1.1/DTD/svg11.dtd">
<svg xmlns="http://www.w3.org/2000/svg" xmlns:xlink="http://www.w3.org/1999/xlink" version="1.1" width="1280" height="1024" viewBox="0 0 1280 1024" xml:space="preserve">
<desc>Created with Fabric.js 5.3.0</desc>
<defs>
</defs>
<g transform="matrix(1 0 0 1 640 512)" id="background-logo"  >
<rect style="stroke: none; stroke-width: 0; stroke-dasharray: none; stroke-linecap: butt; stroke-dashoffset: 0; stroke-linejoin: miter; stroke-miterlimit: 4; fill: rgb(255,255,255); fill-opacity: 0; fill-rule: nonzero; opacity: 1;"  paint-order="stroke"  x="-640" y="-512" rx="0" ry="0" width="1280" height="1024" />
</g>
<g transform="matrix(1.5906843992613644 0 0 1.5906843992613642 640 390.95082363654785)" id="logo-logo"  >
<g style=""  paint-order="stroke"   >
		<g transform="matrix(0.917930923744532 0 0 0.9179309237445321 0 0)"  >
<g style=""  paint-order="stroke"   >
		<g transform="matrix(1 0 0 1 0 0)"  >
<linearGradient id="SVGID_62_687681" gradientUnits="userSpaceOnUse" gradientTransform="matrix(1 0 0 1 -100 -100)"  x1="0" y1="0" x2="0" y2="200">
<stop offset="0%" style="stop-color:rgb(23,234,217);stop-opacity: 1"/>
<stop offset="100%" style="stop-color:rgb(96,120,234);stop-opacity: 1"/>
</linearGradient>
<polygon style="stroke: none; stroke-width: 1; stroke-dasharray: none; stroke-linecap: butt; stroke-dashoffset: 0; stroke-linejoin: miter; stroke-miterlimit: 4; fill: url(#SVGID_62_687681); fill-rule: nonzero; opacity: 1;"  paint-order="stroke"  points="100,100 0,100 0,95.12 95.12,95.12 95.12,-95.12 -95.12,-95.12 -95.12,0 -100,0 -100,-100 100,-100 100,100 " />
</g>
</g>
</g>
</g>
</g>
<g transform="matrix(1.9211538461538462 0 0 1.9211538461538462 641.6425865384615 634.1708561654938)" id="text-logo"  >
<g style=""  paint-order="stroke"   >
		<g transform="matrix(1 0 0 1 5.684342e-14 0)" id="text-logo-path-0"  >
<linearGradient id="SVGID_687682" gradientUnits="userSpaceOnUse" gradientTransform="matrix(1 0 0 1 6 -42)"  x1="-5.955002975463856" y1="-10.748399999999947" x2="-5.955002975463856" y2="57.25160000000005">
<stop offset="0%" style="stop-color:rgb(23,234,217);stop-opacity: 1"/>
<stop offset="100%" style="stop-color:rgb(96,120,234);stop-opacity: 1"/>
</linearGradient>
<path style="stroke: rgb(255,255,255); stroke-width: 0; stroke-dasharray: none; stroke-linecap: butt; stroke-dashoffset: 0; stroke-linejoin: miter; stroke-miterlimit: 4; fill: url(#SVGID_687682); fill-rule: nonzero; opacity: 1;"  paint-order="stroke"  transform=" translate(-271.32, 21)" d="M 6 -42 L 6 0 L 10.2 0 L 10.2 -19.8 L 22.2 -19.8 L 22.2 0 L 26.4 0 L 26.4 -42 L 22.2 -42 L 22.2 -23.4 L 10.2 -23.4 L 10.2 -42 Z M 67.08 -42 L 57.48 -42 L 57.48 -38.4 L 60.18 -38.4 L 60.18 -3.6 L 57.48 -3.6 L 57.48 0 L 67.08 0 L 67.08 -3.6 L 64.38 -3.6 L 64.38 -38.4 L 67.08 -38.4 Z M 98.16 -42 L 98.16 0 L 102.36 0 L 102.36 -31.8 L 115.44 0 L 119.64 0 L 119.64 -42 L 115.44 -42 L 115.44 -10.2 L 102.36 -42 Z M 161.52 -42 L 152.52 -42 L 152.52 0 L 161.52 0 C 167.22 0 171.72 -1.68 171.72 -9.6 L 171.72 -32.4 C 171.72 -40.44 167.22 -42 161.52 -42 Z M 156.72 -38.4 L 161.52 -38.4 C 165.18 -38.4 167.52 -37.26 167.52 -31.8 L 167.52 -10.2 C 167.52 -4.74 165.18 -3.6 161.52 -3.6 L 156.72 -3.6 Z M 219.3 -42 L 199.5 -42 L 199.5 -38.4 L 207.3 -38.4 L 207.3 0 L 211.5 0 L 211.5 -38.4 L 219.3 -38.4 Z M 247.98 0 L 252.18 0 L 252.18 -15.6 L 256.38 -15.6 L 263.88 0 L 268.38 0 L 260.7 -16.08 C 264.24 -16.98 266.58 -19.44 266.58 -25.2 L 266.58 -32.4 C 266.58 -40.44 262.08 -42 256.38 -42 L 247.98 -42 Z M 252.18 -19.2 L 252.18 -38.4 L 256.38 -38.4 C 260.04 -38.4 262.38 -37.26 262.38 -31.8 L 262.38 -25.8 C 262.38 -20.34 260.04 -19.2 256.38 -19.2 Z M 294.06 0 L 298.26 0 L 300.66 -11.4 L 311.4 -11.4 L 313.8 0 L 318 0 L 309.18 -42 L 302.88 -42 Z M 301.44 -15 L 306.06 -37.02 L 310.68 -15 Z M 356.28 -42 L 347.28 -42 L 347.28 0 L 356.28 0 C 361.98 0 366.48 -1.68 366.48 -9.6 L 366.48 -32.4 C 366.48 -40.44 361.98 -42 356.28 -42 Z M 351.48 -38.4 L 356.28 -38.4 C 359.94 -38.4 362.28 -37.26 362.28 -31.8 L 362.28 -10.2 C 362.28 -4.74 359.94 -3.6 356.28 -3.6 L 351.48 -3.6 Z M 398.46 -42 L 398.46 0 L 416.46 0 L 416.46 -3.6 L 402.66 -3.6 L 402.66 -19.2 L 412.86 -19.2 L 412.86 -22.8 L 402.66 -22.8 L 402.66 -38.4 L 415.86 -38.4 L 415.86 -42 Z M 475.62 0 L 479.82 0 L 482.22 -11.4 L 492.96 -11.4 L 495.36 0 L 499.56 0 L 490.74 -42 L 484.44 -42 Z M 483 -15 L 487.62 -37.02 L 492.24 -15 Z M 536.64 -42 L 527.04 -42 L 527.04 -38.4 L 529.74 -38.4 L 529.74 -3.6 L 527.04 -3.6 L 527.04 0 L 536.64 0 L 536.64 -3.6 L 533.94 -3.6 L 533.94 -38.4 L 536.64 -38.4 Z" stroke-linecap="round" />
</g>
</g>
</g>
<g transform="matrix(1.9211538461538462 0 0 1.9211538461538462 626.3982307692308 386.88616159808635)" id="tagline-3a78d944-c0db-44d4-8ad5-60158c925687-logo"  >
<g style=""  paint-order="stroke"   >
		<g transform="matrix(1 0 0 1 0 0)" id="tagline-3a78d944-c0db-44d4-8ad5-60158c925687-logo-path-0"  >
<linearGradient id="SVGID_687683" gradientUnits="userSpaceOnUse" gradientTransform="matrix(1 0 0 1 -15.16 -41.3)"  x1="15.163000000000011" y1="-10.569259999999986" x2="15.163000000000011" y2="56.430740000000014">
<stop offset="0%" style="stop-color:rgb(23,234,217);stop-opacity: 1"/>
<stop offset="100%" style="stop-color:rgb(96,120,234);stop-opacity: 1"/>
</linearGradient>
<path style="stroke: rgb(255,255,255); stroke-width: 0; stroke-dasharray: none; stroke-linecap: butt; stroke-dashoffset: 0; stroke-linejoin: miter; stroke-miterlimit: 4; fill: url(#SVGID_687683); fill-rule: nonzero; opacity: 1;"  paint-order="stroke"  transform=" translate(-17.110000000000003, 20.65)" d="M 32.04 0 L 42.07 0 L 49.38 -41.3 L 39.35 -41.3 L 36.46 -25.08 L 22.89 -25.08 L 25.78 -41.3 L 15.75 -41.3 L 8.44 0 L 18.47 0 L 21.36 -16.23 L 34.93 -16.23 Z M 11.45 -25.37 L 12.04 -28.62 L -10.68 -27.02 Z M 6.96 0 L 7.55 -3.19 L -15.16 -1.59 Z M 8.08 -6.31 L 8.67 -9.56 L -14.04 -7.97 Z M 9.2 -12.69 L 9.74 -15.87 L -12.92 -14.28 Z M 10.33 -19.06 L 10.86 -22.24 L -11.8 -20.65 Z M 12.57 -31.74 L 13.1 -34.93 L -9.56 -33.34 Z M 13.69 -38.11 L 14.22 -41.3 L -8.44 -39.71 Z" stroke-linecap="round" />
</g>
</g>
</g>
<g transform="matrix(1.9211538461538462 0 0 1.9211538461538462 640.2521514423078 763.8024074932162)" id="tagline-ee21041c-fd7a-4646-a088-df0a2334375e-logo"  >
<g style=""  paint-order="stroke"   >
		<g transform="matrix(1 0 0 1 0 0)" id="tagline-ee21041c-fd7a-4646-a088-df0a2334375e-logo-path-0"  >
<linearGradient id="SVGID_687684" gradientUnits="userSpaceOnUse" gradientTransform="matrix(1 0 0 1 0.75 -17.75)"  x1="-0.7562508583069132" y1="-4.228499999999997" x2="-0.7562508583069132" y2="23.771500000000003">
<stop offset="0%" style="stop-color:rgb(101,121,155);stop-opacity: 1"/>
<stop offset="100%" style="stop-color:rgb(94,37,99);stop-opacity: 1"/>
</linearGradient>
<path style="stroke: none; stroke-width: 0; stroke-dasharray: none; stroke-linecap: butt; stroke-dashoffset: 0; stroke-linejoin: miter; stroke-miterlimit: 4; fill: url(#SVGID_687684); fill-rule: nonzero; opacity: 1;"  paint-order="stroke"  transform=" translate(-218.09, 8.75)" d="M 9 -17.5 L 0.75 -17.5 L 0.75 -16 L 4 -16 L 4 0 L 5.75 0 L 5.75 -16 L 9 -16 Z M 26.93 -17.5 L 26.93 0 L 28.68 0 L 28.68 -8.25 L 33.67 -8.25 L 33.67 0 L 35.42 0 L 35.42 -17.5 L 33.67 -17.5 L 33.67 -9.75 L 28.68 -9.75 L 28.68 -17.5 Z M 55.1 -17.5 L 55.1 0 L 62.6 0 L 62.6 -1.5 L 56.85 -1.5 L 56.85 -8 L 61.1 -8 L 61.1 -9.5 L 56.85 -9.5 L 56.85 -16 L 62.35 -16 L 62.35 -17.5 Z M 100.32 -13.75 L 100.32 -3.75 C 100.32 -0.4 102.22 0.25 104.57 0.25 C 106.95 0.25 108.82 -0.45 108.82 -3.75 L 108.82 -13.75 C 108.82 -17.1 106.95 -17.75 104.57 -17.75 C 102.22 -17.75 100.32 -17.1 100.32 -13.75 Z M 102.07 -4.25 L 102.07 -13.25 C 102.07 -15.53 103.05 -16 104.57 -16 C 106.1 -16 107.07 -15.53 107.07 -13.25 L 107.07 -4.25 C 107.07 -1.98 106.1 -1.5 104.57 -1.5 C 103.05 -1.5 102.07 -1.98 102.07 -4.25 Z M 128.13 -17.5 L 128.13 0 L 129.88 0 L 129.88 -13.25 L 135.32 0 L 137.07 0 L 137.07 -17.5 L 135.32 -17.5 L 135.32 -4.25 L 129.88 -17.5 Z M 156.75 -17.5 L 156.75 0 L 164.25 0 L 164.25 -1.5 L 158.5 -1.5 L 158.5 -8 L 162.75 -8 L 162.75 -9.5 L 158.5 -9.5 L 158.5 -16 L 164 -16 L 164 -17.5 Z M 200.98 -17.5 L 203.43 0 L 205.8 0 L 208.5 -14.58 L 211.18 0 L 213.55 0 L 216 -17.5 L 214.25 -17.5 L 212.18 -2.7 L 209.45 -17.5 L 207.53 -17.5 L 204.8 -2.7 L 202.73 -17.5 Z M 234.3 -17.5 L 234.3 0 L 236.05 0 L 236.05 -8.25 L 241.05 -8.25 L 241.05 0 L 242.8 0 L 242.8 -17.5 L 241.05 -17.5 L 241.05 -9.75 L 236.05 -9.75 L 236.05 -17.5 Z M 262.1 -13.75 L 262.1 -3.75 C 262.1 -0.4 264 0.25 266.35 0.25 C 268.73 0.25 270.6 -0.45 270.6 -3.75 L 270.6 -13.75 C 270.6 -17.1 268.73 -17.75 266.35 -17.75 C 264 -17.75 262.1 -17.1 262.1 -13.75 Z M 263.85 -4.25 L 263.85 -13.25 C 263.85 -15.53 264.83 -16 266.35 -16 C 267.88 -16 268.85 -15.53 268.85 -13.25 L 268.85 -4.25 C 268.85 -1.98 267.88 -1.5 266.35 -1.5 C 264.83 -1.5 263.85 -1.98 263.85 -4.25 Z M 312.83 -17.5 L 308.83 -17.5 L 308.83 -16 L 309.95 -16 L 309.95 -1.5 L 308.83 -1.5 L 308.83 0 L 312.83 0 L 312.83 -1.5 L 311.7 -1.5 L 311.7 -16 L 312.83 -16 Z M 335.5 0.25 C 337.85 0.25 339.75 -0.4 339.75 -3.75 L 339.75 -4.25 C 339.75 -8.28 333 -10.85 333 -13.25 C 333 -15.53 333.98 -16 335.5 -16 C 337.03 -16 338 -15.53 338 -13.25 L 338 -12.25 L 339.75 -12.25 L 339.75 -13.75 C 339.75 -17.1 337.88 -17.75 335.5 -17.75 C 333.15 -17.75 331.25 -17.1 331.25 -13.75 L 331.25 -13.25 C 331.25 -9.65 338 -7.08 338 -4.25 C 338 -1.98 337.03 -1.5 335.5 -1.5 C 333.98 -1.5 333 -1.98 333 -4.25 L 333 -5.55 L 331.25 -5.55 L 331.25 -3.75 C 331.25 -0.45 333.13 0.25 335.5 0.25 Z M 377.1 0 L 378.85 0 L 379.85 -4.75 L 384.33 -4.75 L 385.33 0 L 387.08 0 L 383.4 -17.5 L 380.78 -17.5 Z M 380.18 -6.25 L 382.1 -15.43 L 384.03 -6.25 Z M 405.25 -17.5 L 405.25 0 L 411.5 0 L 411.5 -1.5 L 407 -1.5 L 407 -17.5 Z M 429.18 -17.5 L 429.18 0 L 435.43 0 L 435.43 -1.5 L 430.93 -1.5 L 430.93 -17.5 Z" stroke-linecap="round" />
</g>
</g>
</g>
</svg>